<svg width="32" height="32" viewBox="0 0 32 32" fill="none" xmlns="http://www.w3.org/2000/svg">
<path fill-rule="evenodd" clip-rule="evenodd" d="M15.999 2.66663C8.63671 2.66663 2.6665 8.6361 2.6665 16.0007C2.6665 21.8911 6.48654 26.8885 11.7853 28.6519C12.452 28.7742 12.6953 28.3625 12.6953 28.0092C12.6953 27.6926 12.6838 26.8542 12.6773 25.7415C8.96846 26.5472 8.18587 23.9541 8.18587 23.9541C7.57959 22.4138 6.70549 22.0038 6.70549 22.0038C5.4949 21.1765 6.79709 21.1933 6.79709 21.1933C8.13513 21.2876 8.83938 22.5673 8.83938 22.5673C10.0288 24.6049 11.96 24.0165 12.7197 23.6752C12.8409 22.8135 13.1853 22.226 13.5663 21.8927C10.6055 21.5562 7.49291 20.4123 7.49291 15.3029C7.49291 13.8474 8.01243 12.6572 8.86532 11.7251C8.72822 11.3878 8.27067 10.0322 8.99604 8.19647C8.99604 8.19647 10.1155 7.83796 12.6626 9.56332C13.7261 9.26758 14.8667 9.11968 16.0006 9.11452C17.1329 9.11968 18.2736 9.26758 19.3386 9.56332C21.8841 7.83796 23.0016 8.19647 23.0016 8.19647C23.729 10.0322 23.2714 11.3878 23.1343 11.7251C23.9888 12.6572 24.5048 13.8474 24.5048 15.3029C24.5048 20.4251 21.3874 21.5522 18.417 21.8823C18.8958 22.2939 19.3223 23.1077 19.3223 24.3514C19.3223 26.1339 19.3059 27.572 19.3059 28.0092C19.3059 28.3657 19.546 28.7805 20.2227 28.6503C25.5163 26.8837 29.3332 21.8895 29.3332 16.0007C29.3332 8.6361 23.3629 2.66663 15.999 2.66663Z" fill="#26292C"/>
</svg>
