<svg width="32" height="32" viewBox="0 0 32 32" fill="none" xmlns="http://www.w3.org/2000/svg">
<path d="M29.6398 7.89871C28.6585 8.33337 27.6038 8.62804 26.4971 8.76004C27.6265 8.08271 28.4945 7.01071 28.9025 5.73337C27.8451 6.36004 26.6745 6.81604 25.4278 7.06137C24.4318 5.99737 23.0091 5.33337 21.4358 5.33337C18.4145 5.33337 15.9651 7.78271 15.9651 10.804C15.9651 11.2334 16.0131 11.6507 16.1065 12.0507C11.5598 11.8227 7.52914 9.64537 4.83048 6.33471C4.35981 7.14271 4.08914 8.08271 4.08914 9.08537C4.08914 10.984 5.05448 12.6574 6.52248 13.6387C5.62514 13.6107 4.78248 13.364 4.04381 12.9547C4.04381 12.9774 4.04381 13 4.04381 13.024C4.04381 15.6747 5.92914 17.8867 8.43314 18.388C7.97448 18.5134 7.49048 18.58 6.99181 18.58C6.63981 18.58 6.29714 18.5454 5.96248 18.4814C6.65848 20.6547 8.67981 22.236 11.0731 22.2814C9.20114 23.748 6.84114 24.6227 4.27848 24.6227C3.83714 24.6227 3.40114 24.5974 2.97314 24.5467C5.39448 26.0987 8.27048 27.004 11.3598 27.004C21.4225 27.004 26.9265 18.668 26.9265 11.4374C26.9265 11.2 26.9211 10.964 26.9105 10.7294C27.9798 9.96004 28.9065 8.99604 29.6398 7.89871Z" fill="#26292C"/>
</svg>
