<svg width="32" height="32" viewBox="0 0 32 32" fill="none" xmlns="http://www.w3.org/2000/svg">
<path d="M29 7.86499V21.865C28.9991 22.6604 28.6828 23.4229 28.1203 23.9853C27.5579 24.5477 26.7954 24.8641 26 24.865H6C5.20462 24.8641 4.44208 24.5477 3.87967 23.9853C3.31725 23.4229 3.00089 22.6604 3 21.865V7.86499C3.00089 7.06961 3.31725 6.30707 3.87967 5.74466C4.44208 5.18224 5.20462 4.86588 6 4.86499H26C26.7954 4.86588 27.5579 5.18224 28.1203 5.74466C28.6828 6.30707 28.9991 7.06961 29 7.86499ZM20 26.865H12C11.7348 26.865 11.4804 26.9703 11.2929 27.1579C11.1054 27.3454 11 27.5998 11 27.865C11 28.1302 11.1054 28.3846 11.2929 28.5721C11.4804 28.7596 11.7348 28.865 12 28.865H20C20.2652 28.865 20.5196 28.7596 20.7071 28.5721C20.8946 28.3846 21 28.1302 21 27.865C21 27.5998 20.8946 27.3454 20.7071 27.1579C20.5196 26.9703 20.2652 26.865 20 26.865Z" fill="#26292C"/>
</svg>
